<svg id="Layer_1" data-name="Layer 1" xmlns="http://www.w3.org/2000/svg" viewBox="0 0 287 80"><defs><style>.cls-1{fill:none;}.cls-2{fill:#c2c1c1;}.cls-3{fill:#f1950a;}.cls-4{fill:#af1936;}.cls-5{fill:#71706e;}</style></defs><rect class="cls-1" width="287" height="80"/><polygon class="cls-2" points="95.94 49.15 0 49.15 1.2 47.02 95.94 47.02 95.94 49.15"/><polygon class="cls-3" points="191.7 49.15 94.77 49.15 95.76 47.02 192.31 47.02 191.7 49.15"/><polygon class="cls-4" points="285.41 49.15 191.13 49.15 192.13 47.02 287 47.02 285.41 49.15"/><path class="cls-4" d="M69.81,9.41,67.24,14.7H38.4a32.15,32.15,0,0,0-5.7.49c-3.46.58-5.51,1.57-6.16,3a1.52,1.52,0,0,0-.25.81c0,1.14,1.19,2,3.59,2.48a26.54,26.54,0,0,0,5.57.53H43.2a49.63,49.63,0,0,1,11.55,1.24C59.57,24.41,62,26.18,62,28.58a5.17,5.17,0,0,1-.45,2c-1.77,3.65-6.8,6.28-15.14,7.91A66.78,66.78,0,0,1,34.3,39.84l-34,.06,2.5-5.34h29a33.4,33.4,0,0,0,5.78-.49c3.41-.57,5.47-1.58,6.14-3a2,2,0,0,0,.21-.82c0-1.13-1.2-1.95-3.6-2.48a26.19,26.19,0,0,0-5.5-.53h-8A48.7,48.7,0,0,1,15.33,26c-4.83-1.18-7.25-2.94-7.25-5.32a5.14,5.14,0,0,1,.44-2c1.76-3.66,6.79-6.28,15.08-7.92A67.91,67.91,0,0,1,35.77,9.41Z"/><polygon class="cls-4" points="135.84 9.41 121.4 39.84 105.39 39.9 111.28 27.34 84.75 27.34 78.79 39.84 62.76 39.9 77.19 9.41 93.27 9.41 87.25 22.05 113.78 22.05 119.82 9.41 135.84 9.41"/><polygon class="cls-4" points="159.3 9.32 144.81 39.84 128.78 39.9 143.22 9.36 159.3 9.32"/><path class="cls-4" d="M222.5,9.32l-2.56,5.33H194.36A21.7,21.7,0,0,0,177.51,22h39L214,27.24H174.29l-6,12.6-16.09.06,6.92-14.84q4.56-9.72,20.83-13.67a66.3,66.3,0,0,1,15.58-2Z"/><polygon class="cls-4" points="286.93 9.41 284.42 14.7 263.4 14.7 251.47 39.84 235.38 39.9 247.32 14.7 226.28 14.7 228.78 9.41 286.93 9.41"/><path class="cls-5" d="M52.22,57.67A4.51,4.51,0,0,0,49,58.91,10.6,10.6,0,0,0,46.65,63c-.6,1.65-.74,2.8-.44,3.47s1.12,1,2.46,1h5.12l-.94,2.61H47.57a8.71,8.71,0,0,1-2.63-.3,3.39,3.39,0,0,1-1.51-1,3.62,3.62,0,0,1-.85-2.38,9.88,9.88,0,0,1,.71-3.52A12.74,12.74,0,0,1,47.11,57a9.35,9.35,0,0,1,6-1.89h5.19l-.93,2.56Z"/><path class="cls-5" d="M73.67,55.19H77l.9,15H74.41l-.07-3.56H67.9l-2.61,3.56H62Zm.46,3-4.26,5.76h4.42Z"/><path class="cls-5" d="M91.1,55.26h7.67c1.79,0,3,.37,3.54,1.09s.58,1.87,0,3.42a7.13,7.13,0,0,1-1.78,2.81A5.58,5.58,0,0,1,97.8,64l1.44,6.25H95.73L94.6,64.35H90.92L88.8,70.23H85.68Zm6,2.67H93.25L91.88,61.7H95.7A5,5,0,0,0,98,61.27a2.55,2.55,0,0,0,1.13-1.47q.38-1-.06-1.44A3.11,3.11,0,0,0,97.07,57.93Z"/><path class="cls-5" d="M128.57,55.34h7.67c1.79,0,3,.37,3.54,1.09s.58,1.86,0,3.41A7.08,7.08,0,0,1,138,62.65a5.51,5.51,0,0,1-2.73,1.4l1.44,6.25H133.2l-1.13-5.88H128.4l-2.13,5.88h-3.12Zm6,2.67h-3.82l-1.36,3.76h3.82a5,5,0,0,0,2.31-.42,2.63,2.63,0,0,0,1.14-1.47c.25-.68.22-1.17-.07-1.45A3.17,3.17,0,0,0,134.54,58Z"/><path class="cls-5" d="M156.26,58a4.71,4.71,0,0,0-2.86.86,5.92,5.92,0,0,0-1.9,2.61h8.62l-1,2.61h-8.64c-.46,1.3-.53,2.24-.2,2.81s1.14.86,2.4.86h5.12l-.95,2.6h-5.26a8.74,8.74,0,0,1-2.64-.3,3.36,3.36,0,0,1-1.5-1,3.65,3.65,0,0,1-.85-2.39,9.88,9.88,0,0,1,.7-3.52,12.89,12.89,0,0,1,3.83-5.86,9.36,9.36,0,0,1,6-1.88h5.18l-.94,2.6Z"/><path class="cls-5" d="M172.81,55.49h3.95l2.17,10.75,3.75-10.75h3.18l-5.42,15h-3.62l-2.27-11.32-4,11.32H167.4Z"/><path class="cls-5" d="M198.45,58.19h-4.79l.94-2.6h12.83l-.94,2.6h-4.82l-4.46,12.34H194Z"/><path class="cls-5" d="M220.11,55.64h3.31l.91,15h-3.47l-.08-3.56h-6.44l-2.61,3.56h-3.31Zm.46,3-4.25,5.76h4.41Z"/><path class="cls-5" d="M239.57,70.68a8.58,8.58,0,0,1-2.95-.35,2.65,2.65,0,0,1-1.37-1.21,3,3,0,0,1-.4-1.75,10,10,0,0,1,.69-2.75l3.22-8.9h3.12l-3.19,8.8a10.66,10.66,0,0,0-.55,1.84A1.42,1.42,0,0,0,239,68a4.94,4.94,0,0,0,1.71.22h3.67l-.9,2.48Z"/></svg>