<svg id="Layer_1" data-name="Layer 1" xmlns="http://www.w3.org/2000/svg" viewBox="0 0 434 120"><defs><style>.cls-1{fill:none;}.cls-2{fill:#fff;}</style></defs><rect class="cls-1" width="434" height="120"/><polygon class="cls-2" points="148.69 73.14 10.9 73.14 12.62 70.08 148.69 70.08 148.69 73.14"/><polygon class="cls-2" points="286.23 73.14 147.01 73.14 148.43 70.08 287.1 70.08 286.23 73.14"/><polygon class="cls-2" points="420.82 73.14 285.41 73.14 286.84 70.08 423.1 70.08 420.82 73.14"/><path class="cls-2" d="M111.17,16.07l-3.69,7.59H66.05a46.65,46.65,0,0,0-8.19.7Q50.41,25.61,49,28.67a2.21,2.21,0,0,0-.37,1.17q0,2.44,5.16,3.56a38.37,38.37,0,0,0,8,.76H73A70.59,70.59,0,0,1,89.54,36C96.46,37.6,100,40.15,100,43.6a7.28,7.28,0,0,1-.66,2.82c-2.53,5.24-9.75,9-21.73,11.36a96.86,96.86,0,0,1-17.4,2l-48.89.08,3.59-7.66h41.7a48.14,48.14,0,0,0,8.29-.71c4.91-.82,7.87-2.26,8.83-4.31A2.78,2.78,0,0,0,74,46c0-1.63-1.73-2.81-5.17-3.56a37.16,37.16,0,0,0-7.9-.76H49.39A70.6,70.6,0,0,1,32.91,39.9q-10.41-2.55-10.4-7.65a7.38,7.38,0,0,1,.63-2.82c2.53-5.25,9.74-9,21.65-11.37a97.91,97.91,0,0,1,17.48-2Z"/><polygon class="cls-2" points="206 16.07 185.26 59.77 162.26 59.85 170.73 41.82 132.62 41.82 124.06 59.77 101.04 59.85 121.76 16.07 144.86 16.07 136.2 34.22 174.32 34.22 182.98 16.07 206 16.07"/><polygon class="cls-2" points="239.7 15.93 218.88 59.77 195.85 59.85 216.6 15.99 239.7 15.93"/><path class="cls-2" d="M330.47,15.93l-3.68,7.67H290.05q-14.74,0-24.2,10.48h56.06l-3.69,7.6h-57l-8.57,18.09-23.11.08,9.94-21.3q6.56-14,29.92-19.64A95.16,95.16,0,0,1,291.79,16Z"/><polygon class="cls-2" points="423 16.07 419.4 23.66 389.2 23.66 372.07 59.77 348.96 59.85 366.11 23.66 335.88 23.66 339.48 16.07 423 16.07"/><path class="cls-2" d="M85.89,85.38a6.48,6.48,0,0,0-4.65,1.78A15.34,15.34,0,0,0,77.9,93q-1.29,3.54-.64,5c.44,1,1.61,1.45,3.53,1.45h7.36L86.8,103.2H79.22a12.44,12.44,0,0,1-3.78-.43,4.92,4.92,0,0,1-2.17-1.46,5.17,5.17,0,0,1-1.21-3.42,14.11,14.11,0,0,1,1-5.06,18.32,18.32,0,0,1,5.5-8.41,13.36,13.36,0,0,1,8.57-2.71h7.44l-1.33,3.67Z"/><path class="cls-2" d="M116.71,81.81h4.75l1.3,21.5h-5l-.11-5.12h-9.25l-3.75,5.12H99.92Zm.65,4.27-6.11,8.28h6.35Z"/><path class="cls-2" d="M141.74,81.92h11c2.57,0,4.26.53,5.08,1.57s.83,2.67,0,4.9a10.07,10.07,0,0,1-2.57,4,7.83,7.83,0,0,1-3.92,2l2.06,9h-5L146.76,95h-5.27l-3.06,8.45H134Zm8.57,3.83h-5.48l-2,5.41h5.48a7,7,0,0,0,3.33-.61,3.79,3.79,0,0,0,1.63-2.1c.35-1,.32-1.68-.1-2.09S151.83,85.75,150.31,85.75Z"/><path class="cls-2" d="M195.56,82h11c2.57,0,4.26.53,5.08,1.57s.83,2.67,0,4.9a10,10,0,0,1-2.57,4,7.91,7.91,0,0,1-3.92,2l2.07,9h-5l-1.63-8.45h-5.27l-3.06,8.45h-4.47Zm8.57,3.83h-5.49l-2,5.41h5.5a7,7,0,0,0,3.32-.61,3.78,3.78,0,0,0,1.63-2.11c.36-1,.32-1.67-.1-2.08S205.65,85.86,204.13,85.86Z"/><path class="cls-2" d="M235.33,85.89a6.83,6.83,0,0,0-4.11,1.22,8.5,8.5,0,0,0-2.73,3.76h12.38l-1.36,3.75H227.1c-.67,1.87-.76,3.21-.28,4s1.62,1.22,3.44,1.22h7.34l-1.35,3.74h-7.57a12.44,12.44,0,0,1-3.78-.43,4.82,4.82,0,0,1-2.16-1.45,5.14,5.14,0,0,1-1.21-3.43,14.25,14.25,0,0,1,1-5q2.07-5.7,5.5-8.42a13.41,13.41,0,0,1,8.57-2.71H244l-1.35,3.75Z"/><path class="cls-2" d="M259.1,82.25h5.67l3.12,15.44,5.38-15.44h4.57l-7.78,21.49h-5.2l-3.27-16.25-5.68,16.25h-4.59Z"/><path class="cls-2" d="M295.92,86.13H289l1.35-3.74h18.43l-1.36,3.74h-6.91l-6.41,17.72H289.5Z"/><path class="cls-2" d="M327,82.47h4.75l1.3,21.49h-5l-.1-5.12h-9.25L315,104h-4.75Zm.65,4.27L321.58,95h6.35Z"/><path class="cls-2" d="M355,104.07a12.49,12.49,0,0,1-4.25-.51,3.77,3.77,0,0,1-2-1.74,4.35,4.35,0,0,1-.58-2.51,15,15,0,0,1,1-4l4.63-12.78h4.48l-4.58,12.63a16.53,16.53,0,0,0-.8,2.65,2.1,2.1,0,0,0,.13,1.24,2.07,2.07,0,0,0,1.17,1.08,7.16,7.16,0,0,0,2.45.32h5.27l-1.29,3.57Z"/></svg>